<?xml version="1.0" encoding="UTF-8" standalone="no"?>
<svg
   version="1.1"
   width="100"
   height="100.00001"
   viewBox="0.69900012 0.92815232 100 100.00001"
   id="svg12"

   xmlns="http://www.w3.org/2000/svg">
  <defs
     id="defs16" />
  <g
     fill="#054aeb"
     id="g4"
     transform="matrix(1.1547077,0,0,1.0189142,-0.10814056,-0.01755536)">
    <path
       d="m 47,1.732 37.301,21.536 a 6,6 0 0 1 3,5.196 v 43.072 a 6,6 0 0 1 -3,5.196 L 47,98.268 a 6,6 0 0 1 -6,0 L 3.699,76.732 a 6,6 0 0 1 -3,-5.196 V 28.464 a 6,6 0 0 1 3,-5.196 L 41,1.732 a 6,6 0 0 1 6,0 z"
       id="path2" />
  </g>
  <g
     fill="#ffffff"
     id="g10"
     transform="matrix(0.72650377,0,0,0.72650377,15.905508,14.143362)">
    <path
       d="M 94.933,39.091 H 26.296 c -2.526,0 -5.307,2.055 -6.197,4.58 L 4.548,77.602 c -0.891,2.525 0.44,4.58 2.967,4.58 h 68.636 c 2.526,0 5.307,-2.055 6.197,-4.58 l 15.551,-33.93 c 0.891,-2.526 -0.44,-4.581 -2.966,-4.581 z"
       id="path6" />
    <path
       d="m 17.321,42.532 c 1.37,-3.683 5.201,-6.44 8.976,-6.44 h 53.328 v -5.42 a 4.587,4.587 0 0 0 -4.582,-4.58 H 34.125 a 1.5,1.5 0 0 1 -1.5,-1.5 v -2.193 a 4.587,4.587 0 0 0 -4.582,-4.58 H 6.405 a 4.586,4.586 0 0 0 -4.581,4.58 v 53.948 z"
       id="path8" />
  </g>
</svg>
